<?xml version="1.0" standalone="no"?>
<!DOCTYPE svg PUBLIC "-//W3C//DTD SVG 20010904//EN"
 "http://www.w3.org/TR/2001/REC-SVG-20010904/DTD/svg10.dtd">
<svg version="1.0" xmlns="http://www.w3.org/2000/svg"
 width="450.000000pt" height="450.000000pt" viewBox="0 0 450.000000 450.000000"
 preserveAspectRatio="xMidYMid meet">
<metadata>
Created by potrace 1.14, written by Peter Selinger 2001-2017
</metadata>
<g transform="translate(0.000000,450.000000) scale(0.100000,-0.100000)"
fill="#000000" stroke="none">
<path d="M2805 3512 c-33 -7 -45 -23 -45 -58 0 -65 98 -89 129 -32 14 25 14
29 -5 54 -22 30 -49 42 -79 36z"/>
<path d="M1845 3405 c-48 -47 -22 -135 40 -135 33 0 81 25 89 45 12 32 6 75
-14 95 -29 29 -84 27 -115 -5z"/>
<path d="M2475 3340 c-9 -15 37 -30 53 -18 6 6 12 14 12 19 0 12 -57 11 -65
-1z"/>
<path d="M3152 3268 c4 -28 38 -38 38 -11 0 15 -2 16 -10 3 -8 -12 -10 -11
-10 8 0 12 -5 22 -11 22 -6 0 -9 -10 -7 -22z"/>
<path d="M3790 3272 c0 -5 9 -17 19 -26 11 -10 39 -61 63 -114 l43 -97 3 -135
c2 -146 0 -154 -53 -184 -29 -16 -22 -17 170 -12 205 5 266 14 378 56 42 16
57 26 57 41 0 60 -222 229 -499 381 -91 50 -169 93 -173 95 -5 2 -8 0 -8 -5z"/>
<path d="M3448 2890 c13 -156 4 -312 -27 -468 -7 -35 -6 -40 5 -31 8 6 14 21
14 33 0 11 9 50 20 85 11 35 23 104 27 153 7 100 2 96 98 73 33 -8 71 -14 85
-14 20 1 21 2 5 6 -11 2 -55 16 -98 29 -83 27 -92 36 -107 106 -23 106 -29
114 -22 28z"/>
<path d="M614 2893 c-222 -168 -443 -378 -524 -497 -71 -104 -53 -122 120
-113 63 3 156 15 205 26 94 21 319 94 339 109 23 18 130 53 156 50 27 -3 78
26 62 36 -5 3 -33 -1 -63 -10 -41 -12 -61 -14 -89 -5 -48 14 -105 63 -138 119
-25 44 -27 55 -27 162 0 75 4 123 13 138 18 32 2 27 -54 -15z"/>
<path d="M3315 2857 c2 -12 10 -35 19 -52 9 -16 16 -36 16 -42 0 -7 7 -13 16
-13 18 0 13 22 -17 82 -23 44 -37 55 -34 25z"/>
<path d="M3365 2683 c4 -32 10 -110 14 -173 l6 -115 6 101 c9 133 1 231 -19
239 -13 5 -14 -3 -7 -52z"/>
<path d="M1195 2606 c-11 -6 -31 -17 -43 -25 -13 -7 -21 -15 -18 -18 5 -5 96
44 96 52 0 8 -13 4 -35 -9z"/>
<path d="M3053 2534 l-38 -38 30 -6 c37 -7 69 -55 45 -70 -22 -14 -46 -12 -63
5 -13 12 -15 9 -20 -23 -9 -54 8 -165 29 -197 34 -51 129 -72 180 -39 14 10
32 30 40 45 19 37 18 151 -1 216 -20 67 -78 130 -127 139 -34 6 -41 3 -75 -32z"/>
<path d="M2058 2514 c-15 -8 -35 -28 -43 -44 -19 -37 -19 -39 4 -33 32 8 61
-14 61 -47 0 -39 -32 -49 -70 -22 l-28 21 -6 -22 c-8 -30 -8 -147 0 -187 4
-18 24 -50 44 -71 34 -36 41 -39 93 -39 71 0 137 28 168 71 19 27 23 45 22 90
-1 62 -27 165 -54 220 -34 69 -125 99 -191 63z"/>
<path d="M3360 2299 c-8 -46 -14 -103 -13 -126 0 -28 -3 -40 -11 -37 -16 6
-74 -34 -99 -68 -16 -22 -21 -46 -23 -124 -2 -53 -9 -103 -15 -110 -15 -18 -7
-18 39 1 52 22 81 52 107 111 13 29 30 56 39 61 13 7 14 17 5 63 -19 107 -22
152 -10 188 7 23 9 53 4 81 l-8 44 -15 -84z m-8 -294 c-8 -15 -10 -15 -23 1
-12 16 -12 17 4 11 11 -4 16 -3 12 3 -3 6 -3 16 2 23 11 18 17 -18 5 -38z"/>
<path d="M1833 2128 c-30 -15 -29 -24 5 -33 l27 -7 -34 -12 c-39 -14 -51 -33
-27 -42 9 -3 16 -10 16 -16 0 -5 -4 -6 -10 -3 -5 3 -10 -3 -10 -14 0 -11 -4
-23 -10 -26 -5 -3 -10 -17 -10 -30 0 -34 50 -125 69 -125 12 0 13 -2 3 -9 -10
-6 -10 -10 1 -20 12 -9 16 -8 21 4 3 8 14 15 24 15 21 0 62 65 62 98 0 11 7
27 15 36 22 22 18 62 -11 116 -34 62 -86 89 -131 68z"/>
<path d="M2740 2006 c0 -2 16 -13 35 -25 20 -11 39 -30 43 -42 7 -17 10 -18
19 -7 6 7 14 23 17 35 6 19 2 25 -19 33 -26 10 -95 14 -95 6z"/>
<path d="M2668 1980 c-20 -12 -111 -16 -128 -5 -9 6 -10 3 -3 -10 6 -10 9 -27
6 -39 -3 -19 -3 -19 6 2 8 16 19 22 43 22 29 0 128 38 103 39 -5 0 -18 -4 -27
-9z"/>
<path d="M1081 1930 c14 -31 19 -36 19 -24 0 6 -7 19 -16 30 -14 18 -14 18 -3
-6z"/>
<path d="M1110 1875 c0 -8 2 -15 4 -15 2 0 6 7 10 15 3 8 1 15 -4 15 -6 0 -10
-7 -10 -15z"/>
<path d="M3010 1740 c-18 -6 -20 -8 -7 -9 10 -1 15 -5 12 -11 -3 -5 -2 -10 4
-10 6 0 15 9 21 20 11 21 9 22 -30 10z"/>
<path d="M1988 1679 c18 -16 37 -27 43 -24 5 4 -7 17 -26 31 -49 33 -57 30
-17 -7z"/>
<path d="M2590 1640 c-11 -8 -7 -9 15 -4 37 8 45 14 19 14 -10 0 -26 -5 -34
-10z"/>
<path d="M2067 1585 c6 -16 62 -50 69 -42 5 4 -60 57 -70 57 -3 0 -3 -7 1 -15z"/>
<path d="M2481 1532 c-17 -31 -13 -40 5 -14 9 13 14 26 11 29 -3 2 -10 -4 -16
-15z"/>
<path d="M2561 1524 c-27 -34 -26 -40 5 -71 22 -22 32 -25 67 -20 64 9 109 71
75 105 -7 7 -38 12 -69 12 -50 0 -60 -3 -78 -26z"/>
<path d="M3111 1465 c1 -19 18 -51 18 -35 0 8 -4 22 -9 30 -5 8 -9 11 -9 5z"/>
<path d="M1090 1380 c20 -13 33 -13 25 0 -3 6 -14 10 -23 10 -15 0 -15 -2 -2
-10z"/>
<path d="M3151 1355 c0 -11 6 -31 14 -45 l14 -25 1 26 c0 14 -7 34 -15 45 -14
19 -14 19 -14 -1z"/>
<path d="M1250 1213 c0 -5 16 -28 35 -52 43 -54 46 -41 4 17 -30 41 -39 49
-39 35z"/>
<path d="M1327 1053 c-6 -11 -64 -211 -72 -248 -5 -26 -5 -28 7 -14 7 10 33
19 59 21 57 6 97 25 122 59 18 26 18 27 0 62 -16 31 -97 127 -108 127 -2 0 -6
-3 -8 -7z m33 -44 c0 -5 -4 -9 -10 -9 -5 0 -10 7 -10 16 0 8 5 12 10 9 6 -3
10 -10 10 -16z m48 -48 c3 -8 -1 -12 -9 -9 -7 2 -15 10 -17 17 -3 8 1 12 9 9
7 -2 15 -10 17 -17z m28 -58 c-10 -10 -19 5 -10 18 6 11 8 11 12 0 2 -7 1 -15
-2 -18z m-16 -33 c0 -5 -5 -10 -11 -10 -5 0 -7 5 -4 10 3 6 8 10 11 10 2 0 4
-4 4 -10z"/>
<path d="M1245 575 c6 -168 6 -165 19 -165 6 0 21 -12 33 -27 l23 -28 -6 37
c-6 34 -4 38 36 64 52 35 74 72 55 97 -7 9 -16 17 -20 17 -7 0 -73 49 -107 80
-9 9 -22 27 -28 40 -7 19 -9 -11 -5 -115z"/>
</g>
</svg>
