<svg xmlns="http://www.w3.org/2000/svg" id="export" class="canvas" preserveAspectRatio="xMidYMid meet" style="position: absolute; margin: 0px;" width="380" height="1161"><rect id="background" fill="#fff" pointer-events="all" width="380" height="1161"/><g id="origin" transform="translate(17.237574768066406, 17.237574768066406) scale(1)"><g id="clusters" class="clusters"/><g id="edge-paths" class="edge-paths"><defs><marker id="arrowhead-vee" viewBox="0 0 10 10" refX="9" refY="5" markerUnits="strokeWidth" markerWidth="8" markerHeight="6" orient="auto" style="fill: rgb(0, 0, 0);"><path d="M 0 0 L 10 5 L 0 10 L 4 5 z" style="stroke-width: 1px;"/></marker><marker id="arrowhead-vee-select" viewBox="0 0 10 10" refX="9" refY="5" markerUnits="strokeWidth" markerWidth="8" markerHeight="6" orient="auto" style="fill: rgb(238, 0, 0);"><path d="M 0 0 L 10 5 L 0 10 L 4 5 z" style="stroke-width: 1px;"/></marker></defs><path id="edge-input.1" class="edge-path" d="M98.6257495880127,20.36400032043457L98.6257495880127,23.800666968027752C98.6257495880127,27.23733361562093,98.6257495880127,34.11066691080729,98.6257495880127,40.98400020599365C98.6257495880127,47.857333501180015,98.6257495880127,54.73066679636637,98.6257495880127,58.167333443959556L98.6257495880127,61.604000091552734" style="stroke: rgb(0, 0, 0); stroke-width: 1px; fill: none; marker-end: url(&quot;#arrowhead-vee&quot;);"/><path id="edge-11" class="edge-path" d="M98.6257495880127,118.03200149536133L98.6257495880127,119.698668162028C98.6257495880127,121.36533482869466,98.6257495880127,124.698668162028,98.6257495880127,128.03200149536133C98.6257495880127,131.36533482869467,98.6257495880127,134.69866816202799,98.6257495880127,136.36533482869467L98.6257495880127,138.03200149536133" style="stroke: rgb(0, 0, 0); stroke-width: 1px; fill: none; marker-end: url(&quot;#arrowhead-vee&quot;);"/><path id="edge-12" class="edge-path" d="M98.6257495880127,158.3960018157959L98.6257495880127,160.06266848246256C98.6257495880127,161.72933514912924,98.6257495880127,165.06266848246256,98.6257495880127,168.3960018157959C98.6257495880127,171.72933514912924,98.6257495880127,175.06266848246256,98.6257495880127,176.72933514912924L98.6257495880127,178.3960018157959" style="stroke: rgb(0, 0, 0); stroke-width: 1px; fill: none; marker-end: url(&quot;#arrowhead-vee&quot;);"/><path id="edge-13" class="edge-path" d="M98.6257495880127,198.76000213623047L98.6257495880127,200.42666880289713C98.6257495880127,202.0933354695638,98.6257495880127,205.42666880289713,98.6257495880127,208.76000213623047C98.6257495880127,212.0933354695638,98.6257495880127,215.42666880289713,98.6257495880127,217.0933354695638L98.6257495880127,218.76000213623047" style="stroke: rgb(0, 0, 0); stroke-width: 1px; fill: none; marker-end: url(&quot;#arrowhead-vee&quot;);"/><path id="edge-14" class="edge-path" d="M98.6257495880127,275.18800354003906L98.6257495880127,276.85467020670575C98.6257495880127,278.5213368733724,98.6257495880127,281.85467020670575,98.6257495880127,285.18800354003906C98.6257495880127,288.5213368733724,98.6257495880127,291.85467020670575,98.6257495880127,293.5213368733724L98.6257495880127,295.18800354003906" style="stroke: rgb(0, 0, 0); stroke-width: 1px; fill: none; marker-end: url(&quot;#arrowhead-vee&quot;);"/><path id="edge-15" class="edge-path" d="M98.6257495880127,315.55200386047363L98.6257495880127,317.2186705271403C98.6257495880127,318.88533719380695,98.6257495880127,322.2186705271403,98.6257495880127,325.55200386047363C98.6257495880127,328.88533719380695,98.6257495880127,332.2186705271403,98.6257495880127,333.88533719380695L98.6257495880127,335.55200386047363" style="stroke: rgb(0, 0, 0); stroke-width: 1px; fill: none; marker-end: url(&quot;#arrowhead-vee&quot;);"/><path id="edge-16" class="edge-path" d="M127.3177490234375,349.06911956994975L151.4733740488688,351.87693367177616C175.62899907430014,354.68474777360257,223.94024912516275,360.3003759772553,248.09587415059408,364.7748567457484C272.2514991760254,369.2493375142415,272.2514991760254,372.5826708475749,272.2514991760254,374.2493375142415L272.2514991760254,375.9160041809082" style="stroke: rgb(0, 0, 0); stroke-width: 1px; fill: none; marker-end: url(&quot;#arrowhead-vee&quot;);"/><path id="edge-16" class="edge-path" d="M123.15787654100843,355.9160041809082L127.17348031351126,357.5826708475749C131.18908408601408,359.2493375142415,139.22029163101973,362.5826708475749,143.23589540352256,367.6130042076111C147.2514991760254,372.6433375676473,147.2514991760254,379.3706709543864,147.2514991760254,386.0980043411255C147.2514991760254,392.82533772786456,147.2514991760254,399.5526711146037,147.2514991760254,406.09267139434814C147.2514991760254,412.6326716740926,147.2514991760254,418.98533884684247,147.2514991760254,422.16167243321735L147.2514991760254,425.3380060195923" style="stroke: rgb(0, 0, 0); stroke-width: 1px; fill: none; marker-end: url(&quot;#arrowhead-vee&quot;);"/><path id="edge-16" class="edge-path" d="M74.09362263501696,355.9160041809082L70.07801886251413,357.5826708475749C66.0624150900113,359.2493375142415,58.03120754500566,362.5826708475749,54.01560377250283,367.6130042076111C50,372.6433375676473,50,379.3706709543864,50,386.0980043411255C50,392.82533772786456,50,399.5526711146037,50,407.789671421051C50,416.02667172749835,50,425.773338953654,50,435.52000617980957C50,445.26667340596515,50,455.0133406321208,50,463.0630078315735C50,471.1126750310262,50,477.46534220377606,50,480.64167579015094L50,483.8180093765259" style="stroke: rgb(0, 0, 0); stroke-width: 1px; fill: none; marker-end: url(&quot;#arrowhead-vee&quot;);"/><path id="edge-16" class="edge-path" d="M69.93375015258789,350.5146715432637L54.52812512715658,353.0815603162045C39.12250010172526,355.64844908914523,8.31125005086263,360.78222663502675,-7.094374974568685,366.71278210133704C-22.5,372.6433375676473,-22.5,379.3706709543864,-22.5,386.0980043411255C-22.5,392.82533772786456,-22.5,399.5526711146037,-22.5,407.789671421051C-22.5,416.02667172749835,-22.5,425.773338953654,-22.5,435.52000617980957C-22.5,445.26667340596515,-22.5,455.0133406321208,-22.5,464.76000785827637C-22.5,474.50667508443195,-22.5,484.2533423105876,-22.5,494.00000953674316C-22.5,503.74667676289874,-22.5,513.4933439890543,-22.5,523.24001121521C-22.5,532.9866784413656,-22.5,542.7333456675211,-22.5,552.4800128936768C-22.5,562.2266801198324,-22.5,571.9733473459879,-22.5,580.2103476524353C-22.5,588.4473479588827,-22.5,595.1746813456217,-22.5,601.9020147323608C-22.5,608.6293481191,-22.5,615.356681505839,-22.5,622.0840148925781C-22.5,628.8113482793173,-22.5,635.5386816660563,-22.5,642.2660150527954C-22.5,648.9933484395345,-22.5,655.7206818262736,-22.5,664.2006821632385C-22.5,672.6806825002035,-22.5,682.9133497873942,-22.5,693.146017074585C-22.5,703.3786843617758,-22.5,713.6113516489664,-2.656125068664551,721.4451546738075C17.1877498626709,729.2789576986485,56.8754997253418,734.7138964611396,76.71937465667725,737.4313658423853L96.5632495880127,740.1488352236308" style="stroke: rgb(0, 0, 0); stroke-width: 1px; fill: none; marker-end: url(&quot;#arrowhead-vee&quot;);"/><path id="edge-17" class="edge-path" d="M272.2514991760254,396.2800045013428L272.2514991760254,397.94667116800946C272.2514991760254,399.6133378346761,272.2514991760254,402.94667116800946,272.2514991760254,406.2800045013428C272.2514991760254,409.6133378346761,272.2514991760254,412.94667116800946,272.2514991760254,414.6133378346761L272.2514991760254,416.2800045013428" style="stroke: rgb(0, 0, 0); stroke-width: 1px; fill: none; marker-end: url(&quot;#arrowhead-vee&quot;);"/><path id="edge-19" class="edge-path" d="M272.2514991760254,454.76000785827637L272.2514991760254,456.42667452494305C272.2514991760254,458.0933411916097,272.2514991760254,461.42667452494305,272.2514991760254,464.76000785827637C272.2514991760254,468.0933411916097,272.2514991760254,471.42667452494305,272.2514991760254,473.0933411916097L272.2514991760254,474.76000785827637" style="stroke: rgb(0, 0, 0); stroke-width: 1px; fill: none; marker-end: url(&quot;#arrowhead-vee&quot;);"/><path id="edge-20" class="edge-path" d="M147.2514991760254,445.70200634002686L147.2514991760254,448.8783399264018C147.2514991760254,452.0546735127767,147.2514991760254,458.40734068552655,147.2514991760254,463.2503409385681C147.2514991760254,468.0933411916097,147.2514991760254,471.42667452494305,147.2514991760254,473.0933411916097L147.2514991760254,474.76000785827637" style="stroke: rgb(0, 0, 0); stroke-width: 1px; fill: none; marker-end: url(&quot;#arrowhead-vee&quot;);"/><path id="edge-22" class="edge-path" d="M147.2514991760254,513.24001121521L147.2514991760254,514.9066778818766C147.2514991760254,516.5733445485433,147.2514991760254,519.9066778818766,154.92666562398276,525.1640946256758C162.6018320719401,530.4215113694751,177.95216496785483,537.6030115237402,185.62733141581217,541.1937616008728L193.30249786376953,544.7845116780053" style="stroke: rgb(0, 0, 0); stroke-width: 1px; fill: none; marker-end: url(&quot;#arrowhead-vee&quot;);"/><path id="edge-23" class="edge-path" d="M50,504.18200969696045L50,507.3583432833354C50,510.53467686971027,50,516.8873440424601,50,521.7303442955017C50,526.5733445485433,50,529.9066778818766,50,531.5733445485433L50,533.24001121521" style="stroke: rgb(0, 0, 0); stroke-width: 1px; fill: none; marker-end: url(&quot;#arrowhead-vee&quot;);"/><path id="edge-25" class="edge-path" d="M50,571.7200145721436L50,573.3866812388102C50,575.0533479054769,50,578.3866812388102,65.77945804595947,582.9191195739908C81.55891609191895,587.4515579091714,113.11783218383789,593.183101246199,128.89729022979736,596.0488729147129L144.67674827575684,598.9146445832268" style="stroke: rgb(0, 0, 0); stroke-width: 1px; fill: none; marker-end: url(&quot;#arrowhead-vee&quot;);"/><path id="edge-27" class="edge-path" d="M272.2514991760254,513.24001121521L272.2514991760254,514.9066778818766C272.2514991760254,516.5733445485433,272.2514991760254,519.9066778818766,264.57633272806805,525.1640946256758C256.90116628011066,530.4215113694751,241.55083338419595,537.6030115237402,233.87566693623862,541.1937616008728L226.20050048828125,544.7845116780053" style="stroke: rgb(0, 0, 0); stroke-width: 1px; fill: none; marker-end: url(&quot;#arrowhead-vee&quot;);"/><path id="edge-28" class="edge-path" d="M209.7514991760254,562.662013053894L209.7514991760254,565.8383466402689C209.7514991760254,569.0146802266439,209.7514991760254,575.3673473993937,204.38870779673258,580.7694946214062C199.0259164174398,586.1716418434188,188.30033365885416,590.623269114694,182.93754227956137,592.8490827503316L177.57475090026855,595.0748963859693" style="stroke: rgb(0, 0, 0); stroke-width: 1px; fill: none; marker-end: url(&quot;#arrowhead-vee&quot;);"/><path id="edge-29" class="edge-path" d="M161.1257495880127,612.0840148925781L161.1257495880127,613.7506815592448C161.1257495880127,615.4173482259115,161.1257495880127,618.7506815592448,161.1257495880127,622.0840148925781C161.1257495880127,625.4173482259115,161.1257495880127,628.7506815592448,161.1257495880127,630.4173482259115L161.1257495880127,632.0840148925781" style="stroke: rgb(0, 0, 0); stroke-width: 1px; fill: none; marker-end: url(&quot;#arrowhead-vee&quot;);"/><path id="edge-32" class="edge-path" d="M161.1257495880127,652.4480152130127L161.1257495880127,654.1146818796793C161.1257495880127,655.7813485463461,161.1257495880127,659.1146818796793,161.1257495880127,662.4480152130127C161.1257495880127,665.7813485463461,161.1257495880127,669.1146818796793,161.1257495880127,670.7813485463461L161.1257495880127,672.4480152130127" style="stroke: rgb(0, 0, 0); stroke-width: 1px; fill: none; marker-end: url(&quot;#arrowhead-vee&quot;);"/><path id="edge-33" class="edge-path" d="M161.1257495880127,713.8440189361572L161.1257495880127,715.5106856028239C161.1257495880127,717.1773522694906,161.1257495880127,720.5106856028239,158.13215796245322,723.8440189361572C155.13856633689372,727.1773522694906,149.15138308577477,730.5106856028239,146.1577914602153,732.1773522694906L143.1641998346558,733.8440189361572" style="stroke: rgb(0, 0, 0); stroke-width: 1px; fill: none; marker-end: url(&quot;#arrowhead-vee&quot;);"/><path id="edge-34" class="edge-path" d="M124.8757495880127,754.2080192565918L124.8757495880127,755.8746859232584C124.8757495880127,757.5413525899252,124.8757495880127,760.8746859232584,124.8757495880127,764.2080192565918C124.8757495880127,767.5413525899252,124.8757495880127,770.8746859232584,124.8757495880127,772.5413525899252L124.8757495880127,774.2080192565918" style="stroke: rgb(0, 0, 0); stroke-width: 1px; fill: none; marker-end: url(&quot;#arrowhead-vee&quot;);"/><path id="edge-35" class="edge-path" d="M124.8757495880127,830.6360206604004L124.8757495880127,832.302687327067C124.8757495880127,833.9693539937338,124.8757495880127,837.302687327067,124.8757495880127,840.6360206604004C124.8757495880127,843.9693539937338,124.8757495880127,847.302687327067,124.8757495880127,848.9693539937338L124.8757495880127,850.6360206604004" style="stroke: rgb(0, 0, 0); stroke-width: 1px; fill: none; marker-end: url(&quot;#arrowhead-vee&quot;);"/><path id="edge-36" class="edge-path" d="M124.8757495880127,871.000020980835L124.8757495880127,872.6666876475016C124.8757495880127,874.3333543141683,124.8757495880127,877.6666876475016,124.8757495880127,881.000020980835C124.8757495880127,884.3333543141683,124.8757495880127,887.6666876475016,124.8757495880127,889.3333543141683L124.8757495880127,891.000020980835" style="stroke: rgb(0, 0, 0); stroke-width: 1px; fill: none; marker-end: url(&quot;#arrowhead-vee&quot;);"/><path id="edge-37" class="edge-path" d="M124.8757495880127,947.4280223846436L124.8757495880127,949.0946890513102C124.8757495880127,950.7613557179769,124.8757495880127,954.0946890513102,124.8757495880127,957.4280223846436C124.8757495880127,960.7613557179769,124.8757495880127,964.0946890513102,124.8757495880127,965.7613557179769L124.8757495880127,967.4280223846436" style="stroke: rgb(0, 0, 0); stroke-width: 1px; fill: none; marker-end: url(&quot;#arrowhead-vee&quot;);"/><path id="edge-38" class="edge-path" d="M124.8757495880127,987.7920227050781L124.8757495880127,989.4586893717448C124.8757495880127,991.1253560384115,124.8757495880127,994.4586893717448,124.8757495880127,997.7920227050781C124.8757495880127,1001.1253560384115,124.8757495880127,1004.4586893717448,124.8757495880127,1006.1253560384115L124.8757495880127,1007.7920227050781" style="stroke: rgb(0, 0, 0); stroke-width: 1px; fill: none; marker-end: url(&quot;#arrowhead-vee&quot;);"/><path id="edge-39" class="edge-path" d="M124.8757495880127,1064.2200241088867L124.8757495880127,1067.65669075648C124.8757495880127,1071.093357404073,124.8757495880127,1077.9666906992595,124.8757495880127,1084.8400239944458C124.8757495880127,1091.713357289632,124.8757495880127,1098.5866905848186,124.8757495880127,1102.0233572324116L124.8757495880127,1105.4600238800049" style="stroke: rgb(0, 0, 0); stroke-width: 1px; fill: none; marker-end: url(&quot;#arrowhead-vee&quot;);"/></g><g id="edge-labels" class="edge-labels"><g style="opacity: 1;" class="edge-label" id="edge-label-edge-input.1" transform="translate(129.00575065612793,40.98400020599365)"><g transform="translate(-25.380001068115234,-5.619999885559082)"><text style="font-family: -apple-system, BlinkMacSystemFont, &quot;Segoe WPC&quot;, &quot;Segoe UI&quot;, &quot;Ubuntu&quot;, &quot;Droid Sans&quot;, sans-serif, &quot;PingFang SC&quot;; font-size: 10px;"><tspan xml:space="preserve" dy="1em" x="1">1×3×32×32</tspan></text></g></g><g style="opacity: 1;" class="edge-label" id="edge-label-edge-39" transform="translate(141.1557502746582,1084.8400239944458)"><g transform="translate(-11.280000686645508,-5.619999885559082)"><text style="font-family: -apple-system, BlinkMacSystemFont, &quot;Segoe WPC&quot;, &quot;Segoe UI&quot;, &quot;Ubuntu&quot;, &quot;Droid Sans&quot;, sans-serif, &quot;PingFang SC&quot;; font-size: 10px;"><tspan xml:space="preserve" dy="1em" x="1">1×10</tspan></text></g></g></g><g id="nodes" class="nodes"><g id="node-name-Conv_0" class="node graph-node" style="opacity: 1;" transform="translate(98.6257495880127,89.81800079345703)"><g transform="translate(-50,-28.214000701904297)"><g class="node-item node-item-type node-item-type-layer" transform="translate(0,0)"><path d="M5,0h90a5,5 0 0 1 5,5v15.36400032043457a0,0 0 0 1 0,0h-100a0,0 0 0 1 0,0v-15.36400032043457a5,5 0 0 1 5,-5z" style="stroke: rgb(0, 0, 0); fill: rgb(51, 85, 136); stroke-width: 0px;"/><text x="6" y="14.251999855041504" style="font-family: -apple-system, BlinkMacSystemFont, &quot;Segoe WPC&quot;, &quot;Segoe UI&quot;, &quot;Ubuntu&quot;, &quot;Droid Sans&quot;, sans-serif, &quot;PingFang SC&quot;; font-size: 11px; text-rendering: geometricprecision; fill: rgb(255, 255, 255);">Conv</text><title>Conv_0</title></g><g class="node-attribute" transform="translate(0,20.36400032043457)"><path d="M0,0h100a0,0 0 0 1 0,0v31.064001083374023a5,5 0 0 1 -5,5h-90a5,5 0 0 1 -5,-5v-31.064001083374023a0,0 0 0 1 0,0z" style="stroke: rgb(0, 0, 0); fill: rgb(255, 255, 255); stroke-width: 0px;"/><text id="initializer-conv1.weight" xml:space="preserve" x="6" y="14.440000534057617" style="font-family: -apple-system, BlinkMacSystemFont, &quot;Segoe WPC&quot;, &quot;Segoe UI&quot;, &quot;Ubuntu&quot;, &quot;Droid Sans&quot;, sans-serif, &quot;PingFang SC&quot;; font-size: 9px; font-weight: normal; text-rendering: geometricprecision;"><title>float32[6,3,5,5]</title><tspan style="font-weight: bold;">W</tspan><tspan>〈6×3×5×5〉</tspan></text><text id="initializer-conv1.bias" xml:space="preserve" x="6" y="29.47200107574463" style="font-family: -apple-system, BlinkMacSystemFont, &quot;Segoe WPC&quot;, &quot;Segoe UI&quot;, &quot;Ubuntu&quot;, &quot;Droid Sans&quot;, sans-serif, &quot;PingFang SC&quot;; font-size: 9px; font-weight: normal; text-rendering: geometricprecision;"><title>float32[6]</title><tspan style="font-weight: bold;">B</tspan><tspan>〈6〉</tspan></text><line class="node" x1="0" x2="100" y1="0" y2="0" style="stroke: rgb(51, 51, 51); fill: none; stroke-width: 1px;"/></g><path class="node border" d="M5,0h90a5,5 0 0 1 5,5v46.428001403808594a5,5 0 0 1 -5,5h-90a5,5 0 0 1 -5,-5v-46.428001403808594a5,5 0 0 1 5,-5z" style="stroke: rgb(51, 51, 51); fill: none; stroke-width: 1px;"/></g></g><g id="node-name-Relu_1" class="node graph-node" style="opacity: 1;" transform="translate(98.6257495880127,148.2140016555786)"><g transform="translate(-18.192501068115234,-10.182000160217285)"><g class="node-item node-item-type node-item-type-activation" transform="translate(0,0)"><path d="M5,0h26.385000228881836a5,5 0 0 1 5,5v10.36400032043457a5,5 0 0 1 -5,5h-26.385000228881836a5,5 0 0 1 -5,-5v-10.36400032043457a5,5 0 0 1 5,-5z" style="stroke: rgb(0, 0, 0); fill: rgb(75, 27, 22); stroke-width: 0px;"/><text x="6" y="14.251999855041504" style="font-family: -apple-system, BlinkMacSystemFont, &quot;Segoe WPC&quot;, &quot;Segoe UI&quot;, &quot;Ubuntu&quot;, &quot;Droid Sans&quot;, sans-serif, &quot;PingFang SC&quot;; font-size: 11px; text-rendering: geometricprecision; fill: rgb(255, 255, 255);">Relu</text><title>Relu_1</title></g><path class="node border" d="M5,0h26.385000228881836a5,5 0 0 1 5,5v10.36400032043457a5,5 0 0 1 -5,5h-26.385000228881836a5,5 0 0 1 -5,-5v-10.36400032043457a5,5 0 0 1 5,-5z" style="stroke: rgb(51, 51, 51); fill: none; stroke-width: 1px;"/></g></g><g id="node-name-MaxPool_2" class="node graph-node" style="opacity: 1;" transform="translate(98.6257495880127,188.57800197601318)"><g transform="translate(-28.691999435424805,-10.182000160217285)"><g class="node-item node-item-type node-item-type-pool" transform="translate(0,0)"><path d="M5,0h47.38399887084961a5,5 0 0 1 5,5v10.36400032043457a5,5 0 0 1 -5,5h-47.38399887084961a5,5 0 0 1 -5,-5v-10.36400032043457a5,5 0 0 1 5,-5z" style="stroke: rgb(0, 0, 0); fill: rgb(51, 85, 51); stroke-width: 0px;"/><text x="6" y="14.251999855041504" style="font-family: -apple-system, BlinkMacSystemFont, &quot;Segoe WPC&quot;, &quot;Segoe UI&quot;, &quot;Ubuntu&quot;, &quot;Droid Sans&quot;, sans-serif, &quot;PingFang SC&quot;; font-size: 11px; text-rendering: geometricprecision; fill: rgb(255, 255, 255);">MaxPool</text><title>MaxPool_2</title></g><path class="node border" d="M5,0h47.38399887084961a5,5 0 0 1 5,5v10.36400032043457a5,5 0 0 1 -5,5h-47.38399887084961a5,5 0 0 1 -5,-5v-10.36400032043457a5,5 0 0 1 5,-5z" style="stroke: rgb(51, 51, 51); fill: none; stroke-width: 1px;"/></g></g><g id="node-name-Conv_3" class="node graph-node" style="opacity: 1;" transform="translate(98.6257495880127,246.97400283813477)"><g transform="translate(-50,-28.214000701904297)"><g class="node-item node-item-type node-item-type-layer" transform="translate(0,0)"><path d="M5,0h90a5,5 0 0 1 5,5v15.36400032043457a0,0 0 0 1 0,0h-100a0,0 0 0 1 0,0v-15.36400032043457a5,5 0 0 1 5,-5z" style="stroke: rgb(0, 0, 0); fill: rgb(51, 85, 136); stroke-width: 0px;"/><text x="6" y="14.251999855041504" style="font-family: -apple-system, BlinkMacSystemFont, &quot;Segoe WPC&quot;, &quot;Segoe UI&quot;, &quot;Ubuntu&quot;, &quot;Droid Sans&quot;, sans-serif, &quot;PingFang SC&quot;; font-size: 11px; text-rendering: geometricprecision; fill: rgb(255, 255, 255);">Conv</text><title>Conv_3</title></g><g class="node-attribute" transform="translate(0,20.36400032043457)"><path d="M0,0h100a0,0 0 0 1 0,0v31.064001083374023a5,5 0 0 1 -5,5h-90a5,5 0 0 1 -5,-5v-31.064001083374023a0,0 0 0 1 0,0z" style="stroke: rgb(0, 0, 0); fill: rgb(255, 255, 255); stroke-width: 0px;"/><text id="initializer-conv2.weight" xml:space="preserve" x="6" y="14.440000534057617" style="font-family: -apple-system, BlinkMacSystemFont, &quot;Segoe WPC&quot;, &quot;Segoe UI&quot;, &quot;Ubuntu&quot;, &quot;Droid Sans&quot;, sans-serif, &quot;PingFang SC&quot;; font-size: 9px; font-weight: normal; text-rendering: geometricprecision;"><title>float32[16,6,5,5]</title><tspan style="font-weight: bold;">W</tspan><tspan>〈16×6×5×5〉</tspan></text><text id="initializer-conv2.bias" xml:space="preserve" x="6" y="29.47200107574463" style="font-family: -apple-system, BlinkMacSystemFont, &quot;Segoe WPC&quot;, &quot;Segoe UI&quot;, &quot;Ubuntu&quot;, &quot;Droid Sans&quot;, sans-serif, &quot;PingFang SC&quot;; font-size: 9px; font-weight: normal; text-rendering: geometricprecision;"><title>float32[16]</title><tspan style="font-weight: bold;">B</tspan><tspan>〈16〉</tspan></text><line class="node" x1="0" x2="100" y1="0" y2="0" style="stroke: rgb(51, 51, 51); fill: none; stroke-width: 1px;"/></g><path class="node border" d="M5,0h90a5,5 0 0 1 5,5v46.428001403808594a5,5 0 0 1 -5,5h-90a5,5 0 0 1 -5,-5v-46.428001403808594a5,5 0 0 1 5,-5z" style="stroke: rgb(51, 51, 51); fill: none; stroke-width: 1px;"/></g></g><g id="node-name-Relu_4" class="node graph-node" style="opacity: 1;" transform="translate(98.6257495880127,305.37000370025635)"><g transform="translate(-18.192501068115234,-10.182000160217285)"><g class="node-item node-item-type node-item-type-activation" transform="translate(0,0)"><path d="M5,0h26.385000228881836a5,5 0 0 1 5,5v10.36400032043457a5,5 0 0 1 -5,5h-26.385000228881836a5,5 0 0 1 -5,-5v-10.36400032043457a5,5 0 0 1 5,-5z" style="stroke: rgb(0, 0, 0); fill: rgb(75, 27, 22); stroke-width: 0px;"/><text x="6" y="14.251999855041504" style="font-family: -apple-system, BlinkMacSystemFont, &quot;Segoe WPC&quot;, &quot;Segoe UI&quot;, &quot;Ubuntu&quot;, &quot;Droid Sans&quot;, sans-serif, &quot;PingFang SC&quot;; font-size: 11px; text-rendering: geometricprecision; fill: rgb(255, 255, 255);">Relu</text><title>Relu_4</title></g><path class="node border" d="M5,0h26.385000228881836a5,5 0 0 1 5,5v10.36400032043457a5,5 0 0 1 -5,5h-26.385000228881836a5,5 0 0 1 -5,-5v-10.36400032043457a5,5 0 0 1 5,-5z" style="stroke: rgb(51, 51, 51); fill: none; stroke-width: 1px;"/></g></g><g id="node-name-MaxPool_5" class="node graph-node" style="opacity: 1;" transform="translate(98.6257495880127,345.7340040206909)"><g transform="translate(-28.691999435424805,-10.182000160217285)"><g class="node-item node-item-type node-item-type-pool" transform="translate(0,0)"><path d="M5,0h47.38399887084961a5,5 0 0 1 5,5v10.36400032043457a5,5 0 0 1 -5,5h-47.38399887084961a5,5 0 0 1 -5,-5v-10.36400032043457a5,5 0 0 1 5,-5z" style="stroke: rgb(0, 0, 0); fill: rgb(51, 85, 51); stroke-width: 0px;"/><text x="6" y="14.251999855041504" style="font-family: -apple-system, BlinkMacSystemFont, &quot;Segoe WPC&quot;, &quot;Segoe UI&quot;, &quot;Ubuntu&quot;, &quot;Droid Sans&quot;, sans-serif, &quot;PingFang SC&quot;; font-size: 11px; text-rendering: geometricprecision; fill: rgb(255, 255, 255);">MaxPool</text><title>MaxPool_5</title></g><path class="node border" d="M5,0h47.38399887084961a5,5 0 0 1 5,5v10.36400032043457a5,5 0 0 1 -5,5h-47.38399887084961a5,5 0 0 1 -5,-5v-10.36400032043457a5,5 0 0 1 5,-5z" style="stroke: rgb(51, 51, 51); fill: none; stroke-width: 1px;"/></g></g><g id="node-name-Shape_6" class="node graph-node" style="opacity: 1;" transform="translate(272.2514991760254,386.0980043411255)"><g transform="translate(-22.25149917602539,-10.182000160217285)"><g class="node-item node-item-type" transform="translate(0,0)"><path d="M5,0h34.50299835205078a5,5 0 0 1 5,5v10.36400032043457a5,5 0 0 1 -5,5h-34.50299835205078a5,5 0 0 1 -5,-5v-10.36400032043457a5,5 0 0 1 5,-5z" style="stroke: rgb(0, 0, 0); fill: rgb(0, 0, 0); stroke-width: 0px;"/><text x="6" y="14.251999855041504" style="font-family: -apple-system, BlinkMacSystemFont, &quot;Segoe WPC&quot;, &quot;Segoe UI&quot;, &quot;Ubuntu&quot;, &quot;Droid Sans&quot;, sans-serif, &quot;PingFang SC&quot;; font-size: 11px; text-rendering: geometricprecision; fill: rgb(255, 255, 255);">Shape</text><title>Shape_6</title></g><path class="node border" d="M5,0h34.50299835205078a5,5 0 0 1 5,5v10.36400032043457a5,5 0 0 1 -5,5h-34.50299835205078a5,5 0 0 1 -5,-5v-10.36400032043457a5,5 0 0 1 5,-5z" style="stroke: rgb(51, 51, 51); fill: none; stroke-width: 1px;"/></g></g><g id="node-name-Gather_8" class="node graph-node" style="opacity: 1;" transform="translate(272.2514991760254,435.52000617980957)"><g transform="translate(-50,-19.240001678466797)"><g class="node-item node-item-type node-item-type-transform" transform="translate(0,0)"><path d="M5,0h90a5,5 0 0 1 5,5v15.36400032043457a0,0 0 0 1 0,0h-100a0,0 0 0 1 0,0v-15.36400032043457a5,5 0 0 1 5,-5z" style="stroke: rgb(0, 0, 0); fill: rgb(51, 85, 68); stroke-width: 0px;"/><text x="6" y="14.251999855041504" style="font-family: -apple-system, BlinkMacSystemFont, &quot;Segoe WPC&quot;, &quot;Segoe UI&quot;, &quot;Ubuntu&quot;, &quot;Droid Sans&quot;, sans-serif, &quot;PingFang SC&quot;; font-size: 11px; text-rendering: geometricprecision; fill: rgb(255, 255, 255);">Gather</text><title>Gather_8</title></g><g class="node-attribute" transform="translate(0,20.36400032043457)"><path d="M0,0h100a0,0 0 0 1 0,0v13.116000175476074a5,5 0 0 1 -5,5h-90a5,5 0 0 1 -5,-5v-13.116000175476074a0,0 0 0 1 0,0z" style="stroke: rgb(0, 0, 0); fill: rgb(255, 255, 255); stroke-width: 0px;"/><text id="initializer-18" xml:space="preserve" x="6" y="12.38800048828125" style="font-family: -apple-system, BlinkMacSystemFont, &quot;Segoe WPC&quot;, &quot;Segoe UI&quot;, &quot;Ubuntu&quot;, &quot;Droid Sans&quot;, sans-serif, &quot;PingFang SC&quot;; font-size: 9px; font-weight: normal; text-rendering: geometricprecision;"><title>int64</title><tspan>indices</tspan><tspan> = 1</tspan></text><line class="node" x1="0" x2="100" y1="0" y2="0" style="stroke: rgb(51, 51, 51); fill: none; stroke-width: 1px;"/></g><path class="node border" d="M5,0h90a5,5 0 0 1 5,5v28.480000495910645a5,5 0 0 1 -5,5h-90a5,5 0 0 1 -5,-5v-28.480000495910645a5,5 0 0 1 5,-5z" style="stroke: rgb(51, 51, 51); fill: none; stroke-width: 1px;"/></g></g><g id="node-name-Shape_9" class="node graph-node" style="opacity: 1;" transform="translate(147.2514991760254,435.52000617980957)"><g transform="translate(-22.25149917602539,-10.182000160217285)"><g class="node-item node-item-type" transform="translate(0,0)"><path d="M5,0h34.50299835205078a5,5 0 0 1 5,5v10.36400032043457a5,5 0 0 1 -5,5h-34.50299835205078a5,5 0 0 1 -5,-5v-10.36400032043457a5,5 0 0 1 5,-5z" style="stroke: rgb(0, 0, 0); fill: rgb(0, 0, 0); stroke-width: 0px;"/><text x="6" y="14.251999855041504" style="font-family: -apple-system, BlinkMacSystemFont, &quot;Segoe WPC&quot;, &quot;Segoe UI&quot;, &quot;Ubuntu&quot;, &quot;Droid Sans&quot;, sans-serif, &quot;PingFang SC&quot;; font-size: 11px; text-rendering: geometricprecision; fill: rgb(255, 255, 255);">Shape</text><title>Shape_9</title></g><path class="node border" d="M5,0h34.50299835205078a5,5 0 0 1 5,5v10.36400032043457a5,5 0 0 1 -5,5h-34.50299835205078a5,5 0 0 1 -5,-5v-10.36400032043457a5,5 0 0 1 5,-5z" style="stroke: rgb(51, 51, 51); fill: none; stroke-width: 1px;"/></g></g><g id="node-name-Gather_11" class="node graph-node" style="opacity: 1;" transform="translate(147.2514991760254,494.00000953674316)"><g transform="translate(-50,-19.240001678466797)"><g class="node-item node-item-type node-item-type-transform" transform="translate(0,0)"><path d="M5,0h90a5,5 0 0 1 5,5v15.36400032043457a0,0 0 0 1 0,0h-100a0,0 0 0 1 0,0v-15.36400032043457a5,5 0 0 1 5,-5z" style="stroke: rgb(0, 0, 0); fill: rgb(51, 85, 68); stroke-width: 0px;"/><text x="6" y="14.251999855041504" style="font-family: -apple-system, BlinkMacSystemFont, &quot;Segoe WPC&quot;, &quot;Segoe UI&quot;, &quot;Ubuntu&quot;, &quot;Droid Sans&quot;, sans-serif, &quot;PingFang SC&quot;; font-size: 11px; text-rendering: geometricprecision; fill: rgb(255, 255, 255);">Gather</text><title>Gather_11</title></g><g class="node-attribute" transform="translate(0,20.36400032043457)"><path d="M0,0h100a0,0 0 0 1 0,0v13.116000175476074a5,5 0 0 1 -5,5h-90a5,5 0 0 1 -5,-5v-13.116000175476074a0,0 0 0 1 0,0z" style="stroke: rgb(0, 0, 0); fill: rgb(255, 255, 255); stroke-width: 0px;"/><text id="initializer-21" xml:space="preserve" x="6" y="12.38800048828125" style="font-family: -apple-system, BlinkMacSystemFont, &quot;Segoe WPC&quot;, &quot;Segoe UI&quot;, &quot;Ubuntu&quot;, &quot;Droid Sans&quot;, sans-serif, &quot;PingFang SC&quot;; font-size: 9px; font-weight: normal; text-rendering: geometricprecision;"><title>int64</title><tspan>indices</tspan><tspan> = 2</tspan></text><line class="node" x1="0" x2="100" y1="0" y2="0" style="stroke: rgb(51, 51, 51); fill: none; stroke-width: 1px;"/></g><path class="node border" d="M5,0h90a5,5 0 0 1 5,5v28.480000495910645a5,5 0 0 1 -5,5h-90a5,5 0 0 1 -5,-5v-28.480000495910645a5,5 0 0 1 5,-5z" style="stroke: rgb(51, 51, 51); fill: none; stroke-width: 1px;"/></g></g><g id="node-name-Shape_12" class="node graph-node" style="opacity: 1;" transform="translate(50,494.00000953674316)"><g transform="translate(-22.25149917602539,-10.182000160217285)"><g class="node-item node-item-type" transform="translate(0,0)"><path d="M5,0h34.50299835205078a5,5 0 0 1 5,5v10.36400032043457a5,5 0 0 1 -5,5h-34.50299835205078a5,5 0 0 1 -5,-5v-10.36400032043457a5,5 0 0 1 5,-5z" style="stroke: rgb(0, 0, 0); fill: rgb(0, 0, 0); stroke-width: 0px;"/><text x="6" y="14.251999855041504" style="font-family: -apple-system, BlinkMacSystemFont, &quot;Segoe WPC&quot;, &quot;Segoe UI&quot;, &quot;Ubuntu&quot;, &quot;Droid Sans&quot;, sans-serif, &quot;PingFang SC&quot;; font-size: 11px; text-rendering: geometricprecision; fill: rgb(255, 255, 255);">Shape</text><title>Shape_12</title></g><path class="node border" d="M5,0h34.50299835205078a5,5 0 0 1 5,5v10.36400032043457a5,5 0 0 1 -5,5h-34.50299835205078a5,5 0 0 1 -5,-5v-10.36400032043457a5,5 0 0 1 5,-5z" style="stroke: rgb(51, 51, 51); fill: none; stroke-width: 1px;"/></g></g><g id="node-name-Gather_14" class="node graph-node" style="opacity: 1;" transform="translate(50,552.4800128936768)"><g transform="translate(-50,-19.240001678466797)"><g class="node-item node-item-type node-item-type-transform" transform="translate(0,0)"><path d="M5,0h90a5,5 0 0 1 5,5v15.36400032043457a0,0 0 0 1 0,0h-100a0,0 0 0 1 0,0v-15.36400032043457a5,5 0 0 1 5,-5z" style="stroke: rgb(0, 0, 0); fill: rgb(51, 85, 68); stroke-width: 0px;"/><text x="6" y="14.251999855041504" style="font-family: -apple-system, BlinkMacSystemFont, &quot;Segoe WPC&quot;, &quot;Segoe UI&quot;, &quot;Ubuntu&quot;, &quot;Droid Sans&quot;, sans-serif, &quot;PingFang SC&quot;; font-size: 11px; text-rendering: geometricprecision; fill: rgb(255, 255, 255);">Gather</text><title>Gather_14</title></g><g class="node-attribute" transform="translate(0,20.36400032043457)"><path d="M0,0h100a0,0 0 0 1 0,0v13.116000175476074a5,5 0 0 1 -5,5h-90a5,5 0 0 1 -5,-5v-13.116000175476074a0,0 0 0 1 0,0z" style="stroke: rgb(0, 0, 0); fill: rgb(255, 255, 255); stroke-width: 0px;"/><text id="initializer-24" xml:space="preserve" x="6" y="12.38800048828125" style="font-family: -apple-system, BlinkMacSystemFont, &quot;Segoe WPC&quot;, &quot;Segoe UI&quot;, &quot;Ubuntu&quot;, &quot;Droid Sans&quot;, sans-serif, &quot;PingFang SC&quot;; font-size: 9px; font-weight: normal; text-rendering: geometricprecision;"><title>int64</title><tspan>indices</tspan><tspan> = 3</tspan></text><line class="node" x1="0" x2="100" y1="0" y2="0" style="stroke: rgb(51, 51, 51); fill: none; stroke-width: 1px;"/></g><path class="node border" d="M5,0h90a5,5 0 0 1 5,5v28.480000495910645a5,5 0 0 1 -5,5h-90a5,5 0 0 1 -5,-5v-28.480000495910645a5,5 0 0 1 5,-5z" style="stroke: rgb(51, 51, 51); fill: none; stroke-width: 1px;"/></g></g><g id="node-name-Mul_16" class="node graph-node" style="opacity: 1;" transform="translate(272.2514991760254,494.00000953674316)"><g transform="translate(-50,-19.240001678466797)"><g class="node-item node-item-type" transform="translate(0,0)"><path d="M5,0h90a5,5 0 0 1 5,5v15.36400032043457a0,0 0 0 1 0,0h-100a0,0 0 0 1 0,0v-15.36400032043457a5,5 0 0 1 5,-5z" style="stroke: rgb(0, 0, 0); fill: rgb(0, 0, 0); stroke-width: 0px;"/><text x="6" y="14.251999855041504" style="font-family: -apple-system, BlinkMacSystemFont, &quot;Segoe WPC&quot;, &quot;Segoe UI&quot;, &quot;Ubuntu&quot;, &quot;Droid Sans&quot;, sans-serif, &quot;PingFang SC&quot;; font-size: 11px; text-rendering: geometricprecision; fill: rgb(255, 255, 255);">Mul</text><title>Mul_16</title></g><g class="node-attribute" transform="translate(0,20.36400032043457)"><path d="M0,0h100a0,0 0 0 1 0,0v13.116000175476074a5,5 0 0 1 -5,5h-90a5,5 0 0 1 -5,-5v-13.116000175476074a0,0 0 0 1 0,0z" style="stroke: rgb(0, 0, 0); fill: rgb(255, 255, 255); stroke-width: 0px;"/><text id="initializer-26" xml:space="preserve" x="6" y="12.38800048828125" style="font-family: -apple-system, BlinkMacSystemFont, &quot;Segoe WPC&quot;, &quot;Segoe UI&quot;, &quot;Ubuntu&quot;, &quot;Droid Sans&quot;, sans-serif, &quot;PingFang SC&quot;; font-size: 9px; font-weight: normal; text-rendering: geometricprecision;"><title>int64</title><tspan>B</tspan><tspan> = 1</tspan></text><line class="node" x1="0" x2="100" y1="0" y2="0" style="stroke: rgb(51, 51, 51); fill: none; stroke-width: 1px;"/></g><path class="node border" d="M5,0h90a5,5 0 0 1 5,5v28.480000495910645a5,5 0 0 1 -5,5h-90a5,5 0 0 1 -5,-5v-28.480000495910645a5,5 0 0 1 5,-5z" style="stroke: rgb(51, 51, 51); fill: none; stroke-width: 1px;"/></g></g><g id="node-name-Mul_17" class="node graph-node" style="opacity: 1;" transform="translate(209.7514991760254,552.4800128936768)"><g transform="translate(-16.44900131225586,-10.182000160217285)"><g class="node-item node-item-type" transform="translate(0,0)"><path d="M5,0h22.898000717163086a5,5 0 0 1 5,5v10.36400032043457a5,5 0 0 1 -5,5h-22.898000717163086a5,5 0 0 1 -5,-5v-10.36400032043457a5,5 0 0 1 5,-5z" style="stroke: rgb(0, 0, 0); fill: rgb(0, 0, 0); stroke-width: 0px;"/><text x="6" y="14.251999855041504" style="font-family: -apple-system, BlinkMacSystemFont, &quot;Segoe WPC&quot;, &quot;Segoe UI&quot;, &quot;Ubuntu&quot;, &quot;Droid Sans&quot;, sans-serif, &quot;PingFang SC&quot;; font-size: 11px; text-rendering: geometricprecision; fill: rgb(255, 255, 255);">Mul</text><title>Mul_17</title></g><path class="node border" d="M5,0h22.898000717163086a5,5 0 0 1 5,5v10.36400032043457a5,5 0 0 1 -5,5h-22.898000717163086a5,5 0 0 1 -5,-5v-10.36400032043457a5,5 0 0 1 5,-5z" style="stroke: rgb(51, 51, 51); fill: none; stroke-width: 1px;"/></g></g><g id="node-name-Mul_18" class="node graph-node" style="opacity: 1;" transform="translate(161.1257495880127,601.9020147323608)"><g transform="translate(-16.44900131225586,-10.182000160217285)"><g class="node-item node-item-type" transform="translate(0,0)"><path d="M5,0h22.898000717163086a5,5 0 0 1 5,5v10.36400032043457a5,5 0 0 1 -5,5h-22.898000717163086a5,5 0 0 1 -5,-5v-10.36400032043457a5,5 0 0 1 5,-5z" style="stroke: rgb(0, 0, 0); fill: rgb(0, 0, 0); stroke-width: 0px;"/><text x="6" y="14.251999855041504" style="font-family: -apple-system, BlinkMacSystemFont, &quot;Segoe WPC&quot;, &quot;Segoe UI&quot;, &quot;Ubuntu&quot;, &quot;Droid Sans&quot;, sans-serif, &quot;PingFang SC&quot;; font-size: 11px; text-rendering: geometricprecision; fill: rgb(255, 255, 255);">Mul</text><title>Mul_18</title></g><path class="node border" d="M5,0h22.898000717163086a5,5 0 0 1 5,5v10.36400032043457a5,5 0 0 1 -5,5h-22.898000717163086a5,5 0 0 1 -5,-5v-10.36400032043457a5,5 0 0 1 5,-5z" style="stroke: rgb(51, 51, 51); fill: none; stroke-width: 1px;"/></g></g><g id="node-name-Unsqueeze_19" class="node graph-node" style="opacity: 1;" transform="translate(161.1257495880127,642.2660150527954)"><g transform="translate(-34.5,-10.182000160217285)"><g class="node-item node-item-type node-item-type-transform" transform="translate(0,0)"><path d="M5,0h59a5,5 0 0 1 5,5v10.36400032043457a5,5 0 0 1 -5,5h-59a5,5 0 0 1 -5,-5v-10.36400032043457a5,5 0 0 1 5,-5z" style="stroke: rgb(0, 0, 0); fill: rgb(51, 85, 68); stroke-width: 0px;"/><text x="6" y="14.251999855041504" style="font-family: -apple-system, BlinkMacSystemFont, &quot;Segoe WPC&quot;, &quot;Segoe UI&quot;, &quot;Ubuntu&quot;, &quot;Droid Sans&quot;, sans-serif, &quot;PingFang SC&quot;; font-size: 11px; text-rendering: geometricprecision; fill: rgb(255, 255, 255);">Unsqueeze</text><title>Unsqueeze_19</title></g><path class="node border" d="M5,0h59a5,5 0 0 1 5,5v10.36400032043457a5,5 0 0 1 -5,5h-59a5,5 0 0 1 -5,-5v-10.36400032043457a5,5 0 0 1 5,-5z" style="stroke: rgb(51, 51, 51); fill: none; stroke-width: 1px;"/></g></g><g id="node-name-Concat_20" class="node graph-node" style="opacity: 1;" transform="translate(161.1257495880127,693.146017074585)"><g transform="translate(-50,-20.698001861572266)"><g class="node-item node-item-type node-item-type-tensor" transform="translate(0,0)"><path d="M5,0h90a5,5 0 0 1 5,5v15.36400032043457a0,0 0 0 1 0,0h-100a0,0 0 0 1 0,0v-15.36400032043457a5,5 0 0 1 5,-5z" style="stroke: rgb(0, 0, 0); fill: rgb(89, 66, 59); stroke-width: 0px;"/><text x="6" y="14.251999855041504" style="font-family: -apple-system, BlinkMacSystemFont, &quot;Segoe WPC&quot;, &quot;Segoe UI&quot;, &quot;Ubuntu&quot;, &quot;Droid Sans&quot;, sans-serif, &quot;PingFang SC&quot;; font-size: 11px; text-rendering: geometricprecision; fill: rgb(255, 255, 255);">Concat</text><title>Concat_20</title></g><g class="node-attribute" transform="translate(0,20.36400032043457)"><path d="M0,0h100a0,0 0 0 1 0,0v16.03200054168701a5,5 0 0 1 -5,5h-90a5,5 0 0 1 -5,-5v-16.03200054168701a0,0 0 0 1 0,0z" style="stroke: rgb(0, 0, 0); fill: rgb(255, 255, 255); stroke-width: 0px;"/><text xml:space="preserve" x="6" y="14.440000534057617" style="font-family: -apple-system, BlinkMacSystemFont, &quot;Segoe WPC&quot;, &quot;Segoe UI&quot;, &quot;Ubuntu&quot;, &quot;Droid Sans&quot;, sans-serif, &quot;PingFang SC&quot;; font-size: 9px; font-weight: normal; text-rendering: geometricprecision;"><tspan style="font-weight: bold;">〈…〉</tspan><tspan/></text><line class="node" x1="0" x2="100" y1="0" y2="0" style="stroke: rgb(51, 51, 51); fill: none; stroke-width: 1px;"/></g><path class="node border" d="M5,0h90a5,5 0 0 1 5,5v31.396000862121582a5,5 0 0 1 -5,5h-90a5,5 0 0 1 -5,-5v-31.396000862121582a5,5 0 0 1 5,-5z" style="stroke: rgb(51, 51, 51); fill: none; stroke-width: 1px;"/></g></g><g id="node-name-Reshape_21" class="node graph-node" style="opacity: 1;" transform="translate(124.8757495880127,744.0260190963745)"><g transform="translate(-28.3125,-10.182000160217285)"><g class="node-item node-item-type node-item-type-shape" transform="translate(0,0)"><path d="M5,0h46.625a5,5 0 0 1 5,5v10.36400032043457a5,5 0 0 1 -5,5h-46.625a5,5 0 0 1 -5,-5v-10.36400032043457a5,5 0 0 1 5,-5z" style="stroke: rgb(0, 0, 0); fill: rgb(108, 79, 71); stroke-width: 0px;"/><text x="6" y="14.251999855041504" style="font-family: -apple-system, BlinkMacSystemFont, &quot;Segoe WPC&quot;, &quot;Segoe UI&quot;, &quot;Ubuntu&quot;, &quot;Droid Sans&quot;, sans-serif, &quot;PingFang SC&quot;; font-size: 11px; text-rendering: geometricprecision; fill: rgb(255, 255, 255);">Reshape</text><title>Reshape_21</title></g><path class="node border" d="M5,0h46.625a5,5 0 0 1 5,5v10.36400032043457a5,5 0 0 1 -5,5h-46.625a5,5 0 0 1 -5,-5v-10.36400032043457a5,5 0 0 1 5,-5z" style="stroke: rgb(51, 51, 51); fill: none; stroke-width: 1px;"/></g></g><g id="node-name-Gemm_22" class="node graph-node" style="opacity: 1;" transform="translate(124.8757495880127,802.4220199584961)"><g transform="translate(-50,-28.214000701904297)"><g class="node-item node-item-type node-item-type-layer" transform="translate(0,0)"><path d="M5,0h90a5,5 0 0 1 5,5v15.36400032043457a0,0 0 0 1 0,0h-100a0,0 0 0 1 0,0v-15.36400032043457a5,5 0 0 1 5,-5z" style="stroke: rgb(0, 0, 0); fill: rgb(51, 85, 136); stroke-width: 0px;"/><text x="6" y="14.251999855041504" style="font-family: -apple-system, BlinkMacSystemFont, &quot;Segoe WPC&quot;, &quot;Segoe UI&quot;, &quot;Ubuntu&quot;, &quot;Droid Sans&quot;, sans-serif, &quot;PingFang SC&quot;; font-size: 11px; text-rendering: geometricprecision; fill: rgb(255, 255, 255);">Gemm</text><title>Gemm_22</title></g><g class="node-attribute" transform="translate(0,20.36400032043457)"><path d="M0,0h100a0,0 0 0 1 0,0v31.064001083374023a5,5 0 0 1 -5,5h-90a5,5 0 0 1 -5,-5v-31.064001083374023a0,0 0 0 1 0,0z" style="stroke: rgb(0, 0, 0); fill: rgb(255, 255, 255); stroke-width: 0px;"/><text id="initializer-fc1.weight" xml:space="preserve" x="6" y="14.440000534057617" style="font-family: -apple-system, BlinkMacSystemFont, &quot;Segoe WPC&quot;, &quot;Segoe UI&quot;, &quot;Ubuntu&quot;, &quot;Droid Sans&quot;, sans-serif, &quot;PingFang SC&quot;; font-size: 9px; font-weight: normal; text-rendering: geometricprecision;"><title>float32[120,400]</title><tspan style="font-weight: bold;">B</tspan><tspan>〈120×400〉</tspan></text><text id="initializer-fc1.bias" xml:space="preserve" x="6" y="29.47200107574463" style="font-family: -apple-system, BlinkMacSystemFont, &quot;Segoe WPC&quot;, &quot;Segoe UI&quot;, &quot;Ubuntu&quot;, &quot;Droid Sans&quot;, sans-serif, &quot;PingFang SC&quot;; font-size: 9px; font-weight: normal; text-rendering: geometricprecision;"><title>float32[120]</title><tspan style="font-weight: bold;">C</tspan><tspan>〈120〉</tspan></text><line class="node" x1="0" x2="100" y1="0" y2="0" style="stroke: rgb(51, 51, 51); fill: none; stroke-width: 1px;"/></g><path class="node border" d="M5,0h90a5,5 0 0 1 5,5v46.428001403808594a5,5 0 0 1 -5,5h-90a5,5 0 0 1 -5,-5v-46.428001403808594a5,5 0 0 1 5,-5z" style="stroke: rgb(51, 51, 51); fill: none; stroke-width: 1px;"/></g></g><g id="node-name-Relu_23" class="node graph-node" style="opacity: 1;" transform="translate(124.8757495880127,860.8180208206177)"><g transform="translate(-18.192501068115234,-10.182000160217285)"><g class="node-item node-item-type node-item-type-activation" transform="translate(0,0)"><path d="M5,0h26.385000228881836a5,5 0 0 1 5,5v10.36400032043457a5,5 0 0 1 -5,5h-26.385000228881836a5,5 0 0 1 -5,-5v-10.36400032043457a5,5 0 0 1 5,-5z" style="stroke: rgb(0, 0, 0); fill: rgb(75, 27, 22); stroke-width: 0px;"/><text x="6" y="14.251999855041504" style="font-family: -apple-system, BlinkMacSystemFont, &quot;Segoe WPC&quot;, &quot;Segoe UI&quot;, &quot;Ubuntu&quot;, &quot;Droid Sans&quot;, sans-serif, &quot;PingFang SC&quot;; font-size: 11px; text-rendering: geometricprecision; fill: rgb(255, 255, 255);">Relu</text><title>Relu_23</title></g><path class="node border" d="M5,0h26.385000228881836a5,5 0 0 1 5,5v10.36400032043457a5,5 0 0 1 -5,5h-26.385000228881836a5,5 0 0 1 -5,-5v-10.36400032043457a5,5 0 0 1 5,-5z" style="stroke: rgb(51, 51, 51); fill: none; stroke-width: 1px;"/></g></g><g id="node-name-Gemm_24" class="node graph-node" style="opacity: 1;" transform="translate(124.8757495880127,919.2140216827393)"><g transform="translate(-50,-28.214000701904297)"><g class="node-item node-item-type node-item-type-layer" transform="translate(0,0)"><path d="M5,0h90a5,5 0 0 1 5,5v15.36400032043457a0,0 0 0 1 0,0h-100a0,0 0 0 1 0,0v-15.36400032043457a5,5 0 0 1 5,-5z" style="stroke: rgb(0, 0, 0); fill: rgb(51, 85, 136); stroke-width: 0px;"/><text x="6" y="14.251999855041504" style="font-family: -apple-system, BlinkMacSystemFont, &quot;Segoe WPC&quot;, &quot;Segoe UI&quot;, &quot;Ubuntu&quot;, &quot;Droid Sans&quot;, sans-serif, &quot;PingFang SC&quot;; font-size: 11px; text-rendering: geometricprecision; fill: rgb(255, 255, 255);">Gemm</text><title>Gemm_24</title></g><g class="node-attribute" transform="translate(0,20.36400032043457)"><path d="M0,0h100a0,0 0 0 1 0,0v31.064001083374023a5,5 0 0 1 -5,5h-90a5,5 0 0 1 -5,-5v-31.064001083374023a0,0 0 0 1 0,0z" style="stroke: rgb(0, 0, 0); fill: rgb(255, 255, 255); stroke-width: 0px;"/><text id="initializer-fc2.weight" xml:space="preserve" x="6" y="14.440000534057617" style="font-family: -apple-system, BlinkMacSystemFont, &quot;Segoe WPC&quot;, &quot;Segoe UI&quot;, &quot;Ubuntu&quot;, &quot;Droid Sans&quot;, sans-serif, &quot;PingFang SC&quot;; font-size: 9px; font-weight: normal; text-rendering: geometricprecision;"><title>float32[84,120]</title><tspan style="font-weight: bold;">B</tspan><tspan>〈84×120〉</tspan></text><text id="initializer-fc2.bias" xml:space="preserve" x="6" y="29.47200107574463" style="font-family: -apple-system, BlinkMacSystemFont, &quot;Segoe WPC&quot;, &quot;Segoe UI&quot;, &quot;Ubuntu&quot;, &quot;Droid Sans&quot;, sans-serif, &quot;PingFang SC&quot;; font-size: 9px; font-weight: normal; text-rendering: geometricprecision;"><title>float32[84]</title><tspan style="font-weight: bold;">C</tspan><tspan>〈84〉</tspan></text><line class="node" x1="0" x2="100" y1="0" y2="0" style="stroke: rgb(51, 51, 51); fill: none; stroke-width: 1px;"/></g><path class="node border" d="M5,0h90a5,5 0 0 1 5,5v46.428001403808594a5,5 0 0 1 -5,5h-90a5,5 0 0 1 -5,-5v-46.428001403808594a5,5 0 0 1 5,-5z" style="stroke: rgb(51, 51, 51); fill: none; stroke-width: 1px;"/></g></g><g id="node-name-Relu_25" class="node graph-node" style="opacity: 1;" transform="translate(124.8757495880127,977.6100225448608)"><g transform="translate(-18.192501068115234,-10.182000160217285)"><g class="node-item node-item-type node-item-type-activation" transform="translate(0,0)"><path d="M5,0h26.385000228881836a5,5 0 0 1 5,5v10.36400032043457a5,5 0 0 1 -5,5h-26.385000228881836a5,5 0 0 1 -5,-5v-10.36400032043457a5,5 0 0 1 5,-5z" style="stroke: rgb(0, 0, 0); fill: rgb(75, 27, 22); stroke-width: 0px;"/><text x="6" y="14.251999855041504" style="font-family: -apple-system, BlinkMacSystemFont, &quot;Segoe WPC&quot;, &quot;Segoe UI&quot;, &quot;Ubuntu&quot;, &quot;Droid Sans&quot;, sans-serif, &quot;PingFang SC&quot;; font-size: 11px; text-rendering: geometricprecision; fill: rgb(255, 255, 255);">Relu</text><title>Relu_25</title></g><path class="node border" d="M5,0h26.385000228881836a5,5 0 0 1 5,5v10.36400032043457a5,5 0 0 1 -5,5h-26.385000228881836a5,5 0 0 1 -5,-5v-10.36400032043457a5,5 0 0 1 5,-5z" style="stroke: rgb(51, 51, 51); fill: none; stroke-width: 1px;"/></g></g><g id="node-name-Gemm_26" class="node graph-node" style="opacity: 1;" transform="translate(124.8757495880127,1036.0060234069824)"><g transform="translate(-50,-28.214000701904297)"><g class="node-item node-item-type node-item-type-layer" transform="translate(0,0)"><path d="M5,0h90a5,5 0 0 1 5,5v15.36400032043457a0,0 0 0 1 0,0h-100a0,0 0 0 1 0,0v-15.36400032043457a5,5 0 0 1 5,-5z" style="stroke: rgb(0, 0, 0); fill: rgb(51, 85, 136); stroke-width: 0px;"/><text x="6" y="14.251999855041504" style="font-family: -apple-system, BlinkMacSystemFont, &quot;Segoe WPC&quot;, &quot;Segoe UI&quot;, &quot;Ubuntu&quot;, &quot;Droid Sans&quot;, sans-serif, &quot;PingFang SC&quot;; font-size: 11px; text-rendering: geometricprecision; fill: rgb(255, 255, 255);">Gemm</text><title>Gemm_26</title></g><g class="node-attribute" transform="translate(0,20.36400032043457)"><path d="M0,0h100a0,0 0 0 1 0,0v31.064001083374023a5,5 0 0 1 -5,5h-90a5,5 0 0 1 -5,-5v-31.064001083374023a0,0 0 0 1 0,0z" style="stroke: rgb(0, 0, 0); fill: rgb(255, 255, 255); stroke-width: 0px;"/><text id="initializer-fc3.weight" xml:space="preserve" x="6" y="14.440000534057617" style="font-family: -apple-system, BlinkMacSystemFont, &quot;Segoe WPC&quot;, &quot;Segoe UI&quot;, &quot;Ubuntu&quot;, &quot;Droid Sans&quot;, sans-serif, &quot;PingFang SC&quot;; font-size: 9px; font-weight: normal; text-rendering: geometricprecision;"><title>float32[10,84]</title><tspan style="font-weight: bold;">B</tspan><tspan>〈10×84〉</tspan></text><text id="initializer-fc3.bias" xml:space="preserve" x="6" y="29.47200107574463" style="font-family: -apple-system, BlinkMacSystemFont, &quot;Segoe WPC&quot;, &quot;Segoe UI&quot;, &quot;Ubuntu&quot;, &quot;Droid Sans&quot;, sans-serif, &quot;PingFang SC&quot;; font-size: 9px; font-weight: normal; text-rendering: geometricprecision;"><title>float32[10]</title><tspan style="font-weight: bold;">C</tspan><tspan>〈10〉</tspan></text><line class="node" x1="0" x2="100" y1="0" y2="0" style="stroke: rgb(51, 51, 51); fill: none; stroke-width: 1px;"/></g><path class="node border" d="M5,0h90a5,5 0 0 1 5,5v46.428001403808594a5,5 0 0 1 -5,5h-90a5,5 0 0 1 -5,-5v-46.428001403808594a5,5 0 0 1 5,-5z" style="stroke: rgb(51, 51, 51); fill: none; stroke-width: 1px;"/></g></g><g id="input-name-input.1" class="node graph-input" style="opacity: 1;" transform="matrix(1, 0, 0, 1, 98.6257, 10.182)"><g transform="translate(-24.671499252319336,-10.182000160217285)"><g class="node-item graph-item-input" transform="translate(0,0)"><path d="M5,0h39.34299850463867a5,5 0 0 1 5,5v10.36400032043457a5,5 0 0 1 -5,5h-39.34299850463867a5,5 0 0 1 -5,-5v-10.36400032043457a5,5 0 0 1 5,-5z" style="stroke: rgb(0, 0, 0); fill: rgb(238, 238, 238); stroke-width: 0px;"/><text x="6" y="14.251999855041504" style="font-family: -apple-system, BlinkMacSystemFont, &quot;Segoe WPC&quot;, &quot;Segoe UI&quot;, &quot;Ubuntu&quot;, &quot;Droid Sans&quot;, sans-serif, &quot;PingFang SC&quot;; font-size: 11px; text-rendering: geometricprecision;">input.1</text><title>float32[1,3,32,32]</title></g><path class="node border" d="M5,0h39.34299850463867a5,5 0 0 1 5,5v10.36400032043457a5,5 0 0 1 -5,5h-39.34299850463867a5,5 0 0 1 -5,-5v-10.36400032043457a5,5 0 0 1 5,-5z" style="stroke: rgb(51, 51, 51); fill: none; stroke-width: 1px;"/></g></g><g class="node" style="opacity: 1;" transform="translate(124.8757495880127,1115.6420240402222)"><g transform="translate(-13.204000473022461,-10.182000160217285)"><g class="node-item graph-item-output" transform="translate(0,0)"><path d="M5,0h16.407999992370605a5,5 0 0 1 5,5v10.36400032043457a5,5 0 0 1 -5,5h-16.407999992370605a5,5 0 0 1 -5,-5v-10.36400032043457a5,5 0 0 1 5,-5z" style="stroke: rgb(0, 0, 0); fill: rgb(238, 238, 238); stroke-width: 0px;"/><text x="6" y="14.251999855041504" style="font-family: -apple-system, BlinkMacSystemFont, &quot;Segoe WPC&quot;, &quot;Segoe UI&quot;, &quot;Ubuntu&quot;, &quot;Droid Sans&quot;, sans-serif, &quot;PingFang SC&quot;; font-size: 11px; text-rendering: geometricprecision;">39</text><title>float32[1,10]</title></g><path class="node border" d="M5,0h16.407999992370605a5,5 0 0 1 5,5v10.36400032043457a5,5 0 0 1 -5,5h-16.407999992370605a5,5 0 0 1 -5,-5v-10.36400032043457a5,5 0 0 1 5,-5z" style="stroke: rgb(51, 51, 51); fill: none; stroke-width: 1px;"/></g></g></g></g></svg>